<svg xmlns="http://www.w3.org/2000/svg" height="250" width="250" viewBox="0 0 250 250"><style>.st1{fill:#414042}.st27{fill:#bababa}.st28{fill:#7a7a7a}</style><path class="st27" d="M197 202.4c-25 0-45.3-12.2-45.3-27.2 0-19.6 19.5-34.3 45.2-34.3 26.3 0 45.4 14.4 45.4 34.3 0 13-17.3 27.2-45.4 27.2z"/><path class="st1" d="M197 141.9c26 0 44.3 14 44.3 33.3 0 13.3-18.2 26.2-44.4 26.2-26.1 0-44.2-12.9-44.2-26.2 0-18.3 18-33.3 44.2-33.3m0-2c-26.3 0-46.2 15.2-46.2 35.3 0 7.3 4.8 14.5 13.2 19.8a62.7 62.7 0 0033 8.4c25.6 0 46.4-12.6 46.4-28.2 0-10-4.7-19-13.2-25.5A55.3 55.3 0 00197 140z"/><path class="st28" d="M240.6 169.4c.9 7.2 3 15.6-16 26.2-1 .6 5.8-2 5.2-10.1-.4-4.1-2.9-7.6-4.1-7.4-4 .8-13.4 6.6-28.8 6.5-20.5-.3-37.1-8.8-37.1-19.5s16.6-19.4 37.1-19.4 41.8 8.5 43.7 23.7z"/><path class="st27" d="M197 175.7c-13 0-29.1-4-35-11.9-7-9.1-10.3-23.2-10.3-43 0-17 5.3-30.9 15.4-40 8-7.4 18.9-11.6 30-11.6 8.3 0 20.6 1 30.2 8.8 10 8.3 15 22.7 15 42.8 0 20.8-4.5 37-12.2 44.6-6.7 6.3-19.4 10.3-33.2 10.3z"/><path class="st1" d="M197 70.2c20 0 44.3 6 44.3 50.6 0 19.5-4 36.2-12 43.8-6.5 6.4-19.1 10.1-32.4 10.1-12.9 0-28.5-4-34.1-11.5-6.9-9-10-23.3-10-42.4 0-37.5 25.2-50.6 44.2-50.6m0-2A45.8 45.8 0 00166.4 80a53.5 53.5 0 00-15.7 40.8c0 20 3.5 34.3 10.5 43.6 6.4 8.5 23 12.3 35.7 12.3 14 0 27-4 33.9-10.6 8-7.7 12.5-24.2 12.5-45.3 0-20.4-5.2-35-15.4-43.5-9.8-8.1-22.3-9-30.9-9z"/><path class="st28" d="M241.3 120.8c1 31-12 43.8-12 43.8s6.2-22.7 6.2-35.6c0-15.5-7-33.2-11.5-29.8-13.4 10.1-29.3 7.5-39.6 6.4-11.4-1.3-22.8-17-21.3-19.3 11-16.8 15-16 34-16 19.8 0 42.8 2.7 44.2 50.5z"/><g><path class="st27" d="M197 97.7c-27.9 0-38.2-23.4-38.2-38.2 0-19.2 6.6-42.1 38.2-42.1 25.3 0 38 14.2 38 42.1 0 14.2-8 38.2-38 38.2z"/><path class="st1" d="M197 18.4c20.5 0 37 9.1 37 41.1 0 15.6-9 37.2-37 37.2-28.1 0-37.2-24-37.2-37.2 0-31.3 16.7-41.1 37.2-41.1m0-2c-32.4 0-39.2 23.4-39.2 43.1 0 15.2 10.6 39.2 39.1 39.2 13.1 0 23.7-4.7 30.7-13.5a42 42 0 008.5-25.7c0-28.6-13.2-43.1-39-43.1z"/></g><path class="st28" d="M234 59.5c0 8.8-2.8 19.4-10.4 27.1-5.8 6 16.2-25.7-3.2-47.9-20.4-23.2-50.8-10.4-50.8-10.4s8-10 27.4-10c20.5 0 37 9.2 37 41.2z"/><g><path class="st27" d="M52.8 202.4c-24.9 0-45.2-12.2-45.2-27.2 0-19.6 19.5-34.3 45.2-34.3 26.3 0 45.4 14.4 45.4 34.3 0 13-17.3 27.2-45.4 27.2z"/><path class="st1" d="M52.8 141.9c26.2 0 44.4 14 44.4 33.3 0 13.3-18.2 26.2-44.4 26.2-26.1 0-44.2-12.9-44.2-26.2 0-18.3 18-33.3 44.2-33.3m0-2c-26.3 0-46.2 15.2-46.2 35.3 0 7.3 4.9 14.5 13.3 19.8a62.7 62.7 0 0033 8.4c25.5 0 46.3-12.6 46.3-28.2 0-10-4.7-19-13.2-25.5a55.3 55.3 0 00-33.2-9.8z"/><path class="st28" d="M96.5 169.4c1 7.2 3 15.6-16 26.2-1 .6 5.8-2 5.2-10.1-.4-4.1-2.9-7.6-4.1-7.4-4 .8-13.4 6.6-28.8 6.5-20.5-.3-37.1-8.8-37.1-19.5s16.6-19.4 37.1-19.4 41.8 8.5 43.7 23.7z"/><path class="st27" d="M52.8 175.7c-12.9 0-29-4-34.9-11.9-6.9-9.1-10.3-23.2-10.3-43 0-17 5.3-30.9 15.4-40 8-7.4 18.9-11.6 30-11.6 8.3 0 20.6 1 30.2 8.8 10 8.3 15 22.7 15 42.8 0 20.8-4.4 37-12.2 44.6-6.7 6.3-19.4 10.3-33.2 10.3z"/><path class="st1" d="M53 70.2c19.8 0 44.2 6 44.2 50.6 0 19.5-4 36.2-12 43.8-6.5 6.4-19.1 10.1-32.4 10.1-12.9 0-28.5-4-34-11.5-7-9-10.2-23.3-10.2-42.4C8.6 83.3 34 70.2 53 70.2m0-2A45.8 45.8 0 0022.3 80a53.5 53.5 0 00-15.7 40.8c0 20 3.5 34.3 10.5 43.6 6.4 8.5 23 12.3 35.7 12.3 14 0 27-4 33.9-10.6 8-7.7 12.5-24.2 12.5-45.3 0-20.4-5.2-35-15.4-43.5-9.8-8.1-22.3-9-30.9-9z"/><path class="st28" d="M97.2 120.8c1 31-12 43.8-12 43.8s6.2-22.7 6.2-35.6c0-15.5-7-33.2-11.5-29.8-13.4 10.1-29.3 7.5-39.6 6.4-11.4-1.3-22.8-17-21.3-19.3 11-16.8 15-16 34-16 19.8 0 42.8 2.7 44.2 50.5z"/><g><path class="st27" d="M52.8 97.7c-27.8 0-38.1-23.4-38.1-38.2 0-19.2 6.6-42.1 38.2-42.1 25.3 0 38 14.2 38 42.1 0 14.2-8 38.2-38 38.2z"/><path class="st1" d="M53 18.4c20.4 0 37 9.1 37 41.1 0 15.6-9.2 37.2-37.2 37.2-28 0-37.1-24-37.1-37.2 0-31.3 16.7-41.1 37.2-41.1m0-2c-32.4 0-39.2 23.4-39.2 43.1 0 15.2 10.6 39.2 39.1 39.2 13.1 0 23.7-4.7 30.7-13.5A42 42 0 0092 59.5C92 31 78.8 16.4 53 16.4z"/></g><path class="st28" d="M90 59.5c0 8.8-3 19.4-10.4 27.1-5.9 6 16.1-25.7-3.3-47.9C56 15.5 25.6 28.3 25.6 28.3s7.9-10 27.3-10c20.5 0 37 9.2 37 41.2z"/></g><g><path class="st27" d="M124.9 232.6c-26.6 0-48.1-13-48.1-29 0-20.8 20.6-36.5 48-36.5 28.1 0 48.5 15.3 48.5 36.5 0 14-18.5 29-48.4 29z"/><path class="st1" d="M124.9 168.1c27.9 0 47.4 15 47.4 35.5 0 14.2-19.5 28-47.4 28-28 0-47.1-13.8-47.1-28 0-19.5 19.2-35.5 47-35.5m0-2c-28 0-49 16.1-49 37.5 0 7.7 5 15.4 14 21 9.2 5.8 21.6 9 35 9 27.3 0 49.5-13.5 49.5-30 0-10.6-5-20.2-14-27a58.9 58.9 0 00-35.4-10.5z"/><path class="st28" d="M171.5 197.5c1 7.6 3.1 16.6-17 28-1.1.6 6.1-2.4 5.4-10.9-.3-4.4-3-8-4.3-7.8-4.3.8-14.3 7-30.7 6.8-22-.2-39.6-9.3-39.6-20.8 0-11.4 17.7-20.7 39.6-20.7s44.6 9 46.6 25.4z"/><path class="st27" d="M124.9 204.1c-13.8 0-31-4.3-37.2-12.6-7.4-9.8-11-24.8-11-45.9 0-18.2 5.7-33 16.4-42.7a47.7 47.7 0 0132-12.3c8.9 0 22 1 32.1 9.4 10.7 8.8 16 24.1 16 45.6 0 22.2-4.7 39.5-13 47.5-7 6.8-20.6 11-35.3 11z"/><path class="st1" d="M125 91.6c21.3 0 47.3 6.5 47.3 54 0 20.8-4.3 38.6-12.8 46.7-7 6.8-20.5 10.8-34.6 10.8-13.8 0-30.4-4.3-36.4-12.2-7.3-9.8-10.7-25-10.7-45.3 0-40 27-54 47.2-54m0-2c-12 0-23.9 4.6-32.6 12.5-10.9 10-16.6 25-16.6 43.5 0 21.3 3.6 36.5 11.1 46.5 3.9 5 11 8.1 16.3 9.8 6.7 2 14.4 3.2 21.7 3.2 15 0 28.8-4.3 36-11.3 8.5-8.2 13.4-25.8 13.4-48.2 0-21.8-5.6-37.4-16.4-46.3a50.7 50.7 0 00-32.9-9.7z"/><path class="st28" d="M172.3 145.6c1 33-12.8 46.7-12.8 46.7s6.5-24.2 6.5-38c0-16.6-7.3-35.4-12.2-31.7-14.3 10.7-31.3 8-42.3 6.7-12.1-1.3-24.3-18-22.7-20.6 11.7-17.8 16-17 36.2-17 21.3 0 45.8 2.9 47.3 54z"/><g><path class="st27" d="M124.9 120.8c-29.6 0-40.6-24.9-40.6-40.6 0-29.3 14-44.9 40.7-44.9 26.9 0 40.5 15.1 40.5 45 0 15-8.5 40.5-40.6 40.5z"/><path class="st1" d="M125 36.3c21.9 0 39.5 9.8 39.5 44 0 16.5-9.7 39.5-39.6 39.5-29.9 0-39.6-25.5-39.6-39.6 0-33.4 17.8-43.9 39.7-43.9m0-2c-34.5 0-41.7 25-41.7 46 0 16 11.3 41.5 41.6 41.5 13.9 0 25.2-5 32.6-14.3 5.7-7.3 9-17.2 9-27.3 0-30.4-14-45.9-41.5-45.9z"/></g><path class="st28" d="M164.5 80.2c0 9.4-3 20.7-11.1 28.9-6.2 6.3 17.2-27.4-3.5-51-21.7-24.9-54.1-11.2-54.1-11.2s8.5-10.6 29.2-10.6c21.9 0 39.5 9.8 39.5 44z"/></g></svg>